<svg width="1200" height="320" viewBox="0 0 1200 320" fill="none" xmlns="http://www.w3.org/2000/svg" role="img" aria-labelledby="title desc">
  <title id="title">Van Hieu Nguyen — IT Student</title>
  <desc id="desc">A restrained, dark technical header for a software engineering portfolio.</desc>
  <rect width="1200" height="320" fill="#0B1220"/>
  <rect x="1" y="1" width="1198" height="318" stroke="#243047" stroke-width="2"/>
  <path d="M0 250H1200M0 190H1200M0 130H1200M0 70H1200" stroke="#162238" stroke-width="1"/>
  <path d="M860 0V320M960 0V320M1060 0V320M1160 0V320" stroke="#162238" stroke-width="1"/>
  <path d="M738 250H1200M738 250V44H1200" stroke="#2DD4BF" stroke-opacity=".52" stroke-width="2"/>
  <circle cx="738" cy="250" r="5" fill="#2DD4BF"/>
  <circle cx="1036" cy="130" r="5" fill="#60A5FA"/>
  <path d="M738 250L850 190L950 224L1036 130L1150 78" stroke="#60A5FA" stroke-width="2" stroke-linecap="round" stroke-linejoin="round"/>
  <path d="M850 190L950 224" stroke="#2DD4BF" stroke-width="2" stroke-linecap="round"/>
  <text x="74" y="86" fill="#94A3B8" font-family="monospace" font-size="16" letter-spacing="3">VAN HIEU NGUYEN / LUNA HIEU</text>
  <text x="70" y="156" fill="#F8FAFC" font-family="Arial, sans-serif" font-size="47" font-weight="700">IT Student · AI &amp; Software Engineering</text>
  <text x="74" y="204" fill="#B8C4D8" font-family="Arial, sans-serif" font-size="22">Building practical systems with thoughtful engineering.</text>
  <rect x="74" y="248" width="230" height="34" rx="17" fill="#13243A"/>
  <text x="93" y="271" fill="#7DD3FC" font-family="monospace" font-size="15">SYSTEMS / DATA / AI</text>
</svg>
